<svg width="843" height="810" viewBox="0 0 843 810" fill="none" xmlns="http://www.w3.org/2000/svg">
<path d="M442.372 458.953C442.712 441.411 447.7 423.142 468.44 420.935C487.265 418.932 511.826 418.046 530.463 421.389C556.245 426.014 571.148 451.672 579.901 473.797C584.501 485.423 594.236 510.571 586.493 522.873C580.857 531.827 551.519 544.176 541.849 545.593C524.628 548.116 493.37 551.167 476.829 544.987C432.39 528.382 379.263 501.715 359.975 455.621C342.831 414.652 343.917 379.176 378.851 349.291C413.617 319.549 448.923 317.18 493.608 317.18C561.951 317.18 621.117 372.56 657.505 426.236C674.608 451.466 688.977 484.497 697.206 513.936C706.05 545.578 719.405 588.766 701.25 619.358C680.261 654.726 642.98 654.215 608.965 664.041C586.267 670.597 557.313 666.639 535.107 660.708C513.758 655.007 491.741 652.78 470.387 646.925C443.113 639.447 415.99 630.979 388.589 624.053C367.25 618.66 344.469 614.762 324.319 605.574C301.046 594.962 285.503 576.695 269.787 557.104L269.27 556.46C245.281 526.559 222.77 498.501 213.157 460.165C196.674 394.432 221.538 335.863 253.757 278.858C265.555 257.984 280.454 226.927 299.45 211.455C326.166 189.696 354.805 180.859 387.84 175.406C420.002 170.097 457.088 165.616 489.414 171.619C505.015 174.516 520.026 182.896 535.257 187.675C543.958 190.405 552.559 192.374 561.025 195.703C587.438 206.088 616.815 214.012 644.621 219.634C671.036 224.976 693.094 254.114 713.385 270.83C749.515 300.594 770.519 337.875 784.697 382.311C795.982 417.682 803.374 455.427 809.716 491.973C814.989 522.365 830.531 565.605 815.858 595.274C804.246 618.755 796.542 642.478 785.446 666.161C780.293 677.16 782.313 681.391 768.966 685.246C762.141 687.218 757.621 704.29 752.187 709.784C739.446 722.666 717.393 728.031 700.801 734.322C659.061 750.147 616.71 783.921 571.811 788.244C543.949 790.927 513.24 790.622 485.519 786.729C457.465 782.79 429.952 774.125 401.922 769.765C375.971 765.728 348.994 765.493 323.27 759.92C287.589 752.189 242.833 734.294 213.157 712.51C197.031 700.673 182.181 687.254 166.415 674.946C155.303 666.271 142.165 660.646 132.857 649.803C112.577 626.179 102.036 599.357 87.7629 572.1C76.28 550.17 62.2609 531.606 48.8113 510.755C24.8836 473.661 12.9018 422.917 27.0883 379.887C41.5895 335.903 57.8753 292.103 88.8116 257.35C95.2265 250.143 101.841 241.73 105.291 232.661C106.721 228.902 108.643 219.827 113.381 219.029C124.144 217.215 135.121 204.311 145.741 199.944C157.685 195.031 170.391 185.955 177.501 174.8C193.374 149.899 209.4 114.902 235.03 99.0661C256.045 86.0816 277.369 74.434 302.146 71.6505C315.24 70.1796 327.74 67.0436 339.3 60.2904C353.636 51.9162 361.821 50.8799 377.653 49.9906C392.357 49.1646 407.67 36.7334 422.147 33.4806C437.412 30.0511 453.331 30.9057 469.339 30.9057C483.955 30.9057 492.385 20 508.44 20C523.834 20 537.988 22.7264 552.935 22.7264" stroke="#FF9E2B" stroke-width="40" stroke-linecap="round" stroke-linejoin="round"/>
</svg>
